<?xml version="1.0" encoding="utf-8"?>
<!-- Generator: Adobe Illustrator 26.2.1, SVG Export Plug-In . SVG Version: 6.00 Build 0)  -->
<svg version="1.1" id="Layer_1" xmlns="http://www.w3.org/2000/svg" xmlns:xlink="http://www.w3.org/1999/xlink" x="0px" y="0px"
	 width="716.3px" height="159.2px" viewBox="0 0 716.3 159.2" enable-background="new 0 0 716.3 159.2" xml:space="preserve">
<path d="M668.6,77.1l44.8-73.3H696l-36.2,59l-36-59h-17.6l44.7,73.4l-48,78.3h17.6l39.1-64l39,64h17.6L668.6,77.1z M486.1,105.6
	c0,12.4-0.7,20.8-2.1,25.1c-1.3,4.2-3.9,7.8-7.4,10.4c-3.4,2.6-7.5,3.9-11.7,3.9c-3.5,0-6.9-0.8-10-2.3c-5.2-2.3-11.7-6.2-19.5-11.8
	l-8,12.1c7.1,6,13.7,10.1,19.6,12.5c5.7,2.3,11.8,3.5,17.9,3.6c8,0,14.9-1.8,20.5-5.5c5.5-3.5,9.7-8.7,12.1-14.7
	c2.4-6.2,3.6-17.1,3.6-32.8V3.8h-15V105.6z M58.7,105.6c0,12.4-0.7,20.8-2.1,25.1c-1.3,4.2-3.9,7.8-7.4,10.4
	c-3.4,2.6-7.5,3.9-11.7,3.9c-3.5,0-6.9-0.8-10-2.3c-5.2-2.3-11.7-6.2-19.5-11.7l-8,12.1c7.1,6,13.7,10.1,19.5,12.5
	c5.7,2.3,11.8,3.5,17.9,3.6c8,0,14.9-1.8,20.5-5.5c5.5-3.5,9.7-8.7,12.1-14.7c2.4-6.2,3.6-17.1,3.6-32.8V3.8h-15V105.6z M257,0
	c-28.1-0.1-54.1,15.2-67.7,39.8c-7,12.4-10.6,26.3-10.5,40.5c0,21.8,7.7,40.5,23,55.9s34.1,23.1,56.4,23.1c22,0,40.6-7.7,55.9-23.2
	c15.3-15.5,22.9-34.3,22.9-56.5c0-22.4-7.7-41.3-23-56.6S279.8,0,257,0z M313.3,112.5c-5.4,9.8-13.5,17.9-23.2,23.4
	c-9.8,5.7-21,8.6-32.4,8.6c-17.5,0-32.4-6.2-44.7-18.6c-12.4-12.4-18.6-27.6-18.6-45.6c-0.2-11.6,2.7-23,8.4-33.1
	c5.5-9.8,13.6-18,23.3-23.6c9.5-5.7,20.5-8.8,31.6-8.8c22.9,0.2,44,12.4,55.6,32.1c5.6,10,8.5,21.2,8.3,32.6
	C321.8,91.1,318.9,102.4,313.3,112.5z"/>
</svg>
