<svg xmlns="http://www.w3.org/2000/svg" width="24" height="18" viewBox="0 0 24 18">
  <path fill="#FCB665" d="M9.776 9.278v-6.2c0-.5-.3-.9-.7-1.1-.4-.2-.9-.1-1.2.2-.2.2-.4.3-.6.5l-4.5 3.6c-.1.1-.2.1-.3.1h-1.8v5.9h1.8c.1 0 .2 0 .2.1 1.7 1.4 3.5 2.8 5.2 4.2.3.2.6.3 1 .2.6-.1 1-.6 1-1.2l-.1-6.3z"/>
  <path fill="#FCB665" d="M7.1 4.3c2.8 0 5 2.2 5 5s-2.2 5-5 5c-2.7 0-2.7-10 0-10zM14.6 17.8v-2c3.7 0 6.8-3 6.8-6.8 0-3.7-3-6.8-6.8-6.8v-2c4.8 0 8.8 3.9 8.8 8.8-.1 4.8-4 8.8-8.8 8.8z"/>
  <path fill="#FCB665" d="M14.6 14.5v-2h.1c.9 0 1.8-.4 2.5-1.1s1-1.6 1-2.5-.4-1.8-1.1-2.5c-.7-.6-1.5-1-2.5-1h-.1v-2c1.5 0 2.9.5 3.9 1.6 1.1 1 1.7 2.4 1.7 3.9s-.5 2.9-1.6 3.9c-1 1.1-2.4 1.7-3.9 1.7z"/>
</svg>